<?xml version="1.0" encoding="UTF-8" standalone="no"?>
<!-- Created with Inkscape (http://www.inkscape.org/) -->

<svg
   width="270.93332mm"
   height="270.93332mm"
   viewBox="0 2 270.93332 270.93332"
   version="1.1"
   id="svg5"
   xml:space="preserve"
   inkscape:export-filename="Logo2.png"
   inkscape:export-xdpi="96"
   inkscape:export-ydpi="96"
   inkscape:version="1.2.2 (732a01da63, 2022-12-09)"
   sodipodi:docname="dibujo.svg"
   xmlns:inkscape="http://www.inkscape.org/namespaces/inkscape"
   xmlns:sodipodi="http://sodipodi.sourceforge.net/DTD/sodipodi-0.dtd"
   xmlns="http://www.w3.org/2000/svg"
   xmlns:svg="http://www.w3.org/2000/svg"><sodipodi:namedview
     id="namedview7"
     pagecolor="#ffffff"
     bordercolor="#000000"
     borderopacity="0.25"
     inkscape:showpageshadow="2"
     inkscape:pageopacity="0.0"
     inkscape:pagecheckerboard="0"
     inkscape:deskcolor="#d1d1d1"
     inkscape:document-units="px"
     showgrid="false"
     inkscape:zoom="0.23384891"
     inkscape:cx="322.85804"
     inkscape:cy="521.70439"
     inkscape:window-width="1366"
     inkscape:window-height="705"
     inkscape:window-x="-8"
     inkscape:window-y="-8"
     inkscape:window-maximized="1"
     inkscape:current-layer="layer1" /><defs
     id="defs2"><clipPath
       clipPathUnits="userSpaceOnUse"
       id="clipPath688"><path
         id="path690"
         style="fill:#ff0000;fill-opacity:1;fill-rule:nonzero;stroke:none;stroke-width:0.264583"
         d="M 5.9619112,7.6590548 V 278.59239 H 276.89525 V 7.6590548 Z M 167.69829,55.757411 c 1.42839,0.01193 1.88268,1.751907 0.0181,2.89543 -2.8189,1.728621 -5.38276,3.840983 -7.93337,5.935557 -2.16394,1.776987 -3.95927,-0.410075 -1.79473,-2.186432 2.66971,-2.190824 5.35504,-4.397232 8.31061,-6.197036 0.52318,-0.318593 0.99944,-0.450861 1.39939,-0.447519 z m 20.69021,22.672003 c 1.45248,-0.0016 1.41775,1.588786 -0.31729,2.046385 -0.28602,0.07544 -0.56918,0.158676 -0.85111,0.245981 0.0729,0.217331 0.0951,0.466855 0.0403,0.741556 0.17431,0.2003 0.34937,0.457835 0.52813,0.783415 0.0322,0.05868 0.0509,0.128619 0.0584,0.20774 0.21178,-0.173236 0.4217,-0.349602 0.63665,-0.519348 0.58371,-0.460973 1.14023,-0.646213 1.60145,-0.637172 1.27514,0.02498 1.82265,1.53516 0.20929,2.810166 -0.59327,0.468847 -1.17225,0.955646 -1.75751,1.434021 -0.9325,0.761656 -1.79286,0.788294 -2.30064,0.433048 -0.56027,0.867061 -1.14668,1.717408 -1.72444,2.573486 0.17861,0.09272 0.35747,0.18456 0.54053,0.260967 -0.13867,0.313737 -0.20696,0.669578 -0.41599,0.941543 -0.16723,0.217588 -0.43985,0.329044 -0.67231,0.474906 -0.33712,0.211537 -0.67946,0.414631 -1.0263,0.609783 -0.71976,0.994058 -1.49429,1.944632 -2.31768,2.855124 -0.74447,0.899332 -1.56362,1.731798 -2.33164,2.609659 -0.76737,0.91194 -1.33861,1.976718 -1.88103,3.033406 -0.47974,0.93557 -0.95338,1.87397 -1.50895,2.76727 -0.55303,0.87675 -1.2134,1.67254 -1.88567,2.45773 -0.49364,0.54516 -1.0275,1.06029 -1.40147,1.69861 -0.28502,0.47547 -0.51264,0.98632 -0.70073,1.5074 -0.21847,0.6162 -0.57362,1.16683 -0.89865,1.72961 -0.0738,0.10978 -0.14789,0.2194 -0.22169,0.32918 -0.7331,1.09111 -1.6495,1.29659 -2.25,0.98082 -0.17534,0.45773 -0.36034,0.91146 -0.55707,1.36064 -0.34152,0.79044 -0.81805,1.50904 -1.24798,2.25206 -0.44606,0.83344 -1.01865,1.57468 -1.6366,2.28565 -0.58246,0.65983 -1.18258,1.30086 -1.8526,1.87223 -2.1306,1.81694 -3.98531,-0.39038 -1.81952,-2.16524 0.56784,-0.46536 1.0447,-1.02629 1.53995,-1.5658 0.50131,-0.57306 0.96679,-1.16502 1.32085,-1.84329 0.37802,-0.65328 0.79899,-1.28422 1.10691,-1.97508 0.27441,-0.62006 0.51903,-1.2517 0.74931,-1.88929 0.29056,-0.7377 0.51628,-1.49825 0.79995,-2.23862 0.35024,-1.00774 0.70174,-2.02024 1.16427,-2.98276 0.78355,-1.50468 1.74119,-2.90282 2.75487,-4.26176 0.67273,-0.915038 1.33283,-1.83964 1.99626,-2.761589 -2.21626,2.367294 -4.46594,4.703469 -6.72465,7.030059 -1.2578,1.30518 -2.49777,2.62843 -3.70675,3.97909 -1.32055,1.47531 -2.81064,0.14079 -1.48983,-1.33429 1.22718,-1.37049 2.48484,-2.71362 3.76152,-4.03799 1.7569,-1.8097 3.51321,-3.620426 5.25033,-5.449282 -0.034,0.01074 -0.0677,0.02246 -0.1018,0.03307 -0.054,0.04795 -0.10844,0.09543 -0.16227,0.143661 -0.26805,0.226888 -0.53445,0.456708 -0.8046,0.681093 -0.17342,0.144034 -0.32587,0.521348 -0.52451,0.438216 -0.0394,0.05598 -0.0789,0.105222 -0.11163,0.06718 -0.0894,-0.103881 -0.1804,-0.209598 -0.27078,-0.315744 -0.16799,-0.13512 -0.319,-0.294026 -0.46302,-0.460954 -1.26778,2.028867 -3.51133,0.79022 -2.34559,-1.594734 0.0745,-0.152453 0.14883,-0.304914 0.22324,-0.457335 0.005,-0.01738 0.005,-0.03601 0.0109,-0.05323 0.009,-0.02818 0.0625,-0.09746 0.0811,-0.134874 0.0105,-0.02154 0.021,-0.04306 0.0315,-0.06459 0.99203,-1.761382 2.0495,-3.495299 3.34243,-5.055505 1.55738,-1.704906 3.18834,-3.350784 5.05705,-4.719611 2.2539,-1.62573 4.58165,-3.147433 6.88692,-4.698937 1.24265,-0.721852 2.5008,-1.406572 3.81786,-1.983343 0.48094,-0.210608 0.9164,-0.293158 1.28932,-0.280085 0.45207,0.01585 0.81207,0.171818 1.0511,0.407728 0.44725,-0.158213 0.90131,-0.30825 1.29966,-0.417547 0.20793,-0.05704 0.42233,-0.08644 0.63356,-0.129706 0.18184,-0.03725 0.34842,-0.05462 0.49867,-0.05478 z m -24.40626,0.402558 c 1.52342,-0.004 2.01654,1.773918 0.061,2.847372 -1.35398,0.74299 -2.70255,1.494089 -4.07469,2.204 -2.48669,1.286619 -3.78661,-1.226711 -1.29914,-2.512509 1.3373,-0.691267 2.65204,-1.422787 3.97081,-2.147155 0.49856,-0.273778 0.95372,-0.390689 1.34204,-0.391708 z m 11.46494,9.439217 c -0.2426,0.122325 -0.46047,0.217575 -0.54933,0.21549 -0.41274,-0.0097 -0.71402,-0.05489 -0.92604,-0.152445 -1.46432,1.159507 -2.77086,2.49995 -4.02869,3.878318 -0.75314,0.931357 -1.41925,1.925942 -2.0407,2.948138 0.009,-0.0084 0.0198,-0.01759 0.0289,-0.02582 2.4916,-2.300814 4.95087,-4.643803 7.51583,-6.863665 z m -19.3766,10.926982 c 1.74112,1.517959 1.82788,1.121169 1.32395,2.852539 -0.44236,1.51985 -1.53627,1.90324 -2.24121,1.47071 -0.53366,0.57542 -1.04881,1.16653 -1.47174,1.83193 -0.56948,0.81003 -1.11028,1.66103 -1.47588,2.58382 -1.03138,2.60327 -3.6105,1.97663 -2.74402,-0.68574 0.4143,-1.27314 1.1414,-2.42438 1.90066,-3.51762 0.61989,-0.9622 1.39734,-1.79996 2.1792,-2.62981 0.32717,-0.35864 0.67607,-0.69554 1.02526,-1.0325 0.12681,-0.122269 0.46971,-0.480118 0.61391,-0.551384 0.28277,-0.139755 0.5933,-0.214574 0.88987,-0.321945 z M 79.912438,100.8327 c 0.08936,2.7e-4 0.18764,0.0412 0.275952,0.12919 0.0312,-0.009 0.06466,-0.0265 0.09353,-0.0274 0.166542,-0.005 0.296447,0.11907 0.423746,0.24856 0.141507,0.1446 0.256342,0.30361 0.338482,0.48938 0.05304,0.10885 0.09236,0.22285 0.145211,0.33176 0.07125,0.16078 0.114258,0.33081 0.147278,0.50333 0.02979,0.17467 0.03394,0.34912 0.02894,0.52607 -0.0074,0.26138 -0.145928,0.37546 -0.27595,0.3607 -0.05876,0.0288 -0.11286,0.0435 -0.162782,0.0465 -0.05597,0.0411 -0.111715,0.0822 -0.16433,0.1266 -0.06071,-0.0378 -0.126429,-0.0686 -0.18242,-0.11317 -0.03081,-0.0245 -0.05153,-0.0598 -0.07493,-0.0915 -0.02564,-0.0347 -0.04176,-0.0754 -0.06511,-0.11162 -0.0269,0.0915 -0.05999,0.18535 -0.100253,0.28216 -0.326594,0.78531 -0.633114,1.57867 -0.952913,2.36678 -0.281874,0.72718 -0.549653,1.46029 -0.867648,2.17247 -0.298683,0.71092 -0.70961,1.3636 -1.112076,2.01849 -0.375978,0.61717 -0.72966,1.2476 -1.083654,1.8774 -0.297256,0.54562 -0.76005,0.97368 -1.099158,1.48828 -0.232209,0.33126 -0.47243,0.65663 -0.686782,0.99994 -1.048538,1.67952 -2.752942,0.60541 -1.692402,-1.0666 0.230317,-0.36311 0.478793,-0.71314 0.728639,-1.06298 0.320225,-0.45846 0.703664,-0.86797 1.006655,-1.33894 0.366932,-0.65228 0.733324,-1.3049 1.122928,-1.94407 0.357672,-0.58176 0.72711,-1.15924 0.991156,-1.79162 0.312158,-0.68806 0.560348,-1.40262 0.838708,-2.10426 0.34829,-0.85824 0.673399,-1.72638 1.050581,-2.57246 0.302326,-0.67816 0.731425,-0.96996 1.110012,-0.97358 0.01886,-1.8e-4 0.03775,2.6e-4 0.05633,0.002 -0.02096,-0.0486 -0.04257,-0.0969 -0.06305,-0.14574 -0.16079,-0.38327 0.0058,-0.62615 0.225309,-0.62529 z m 129.115112,2.40192 c 0.26462,-0.01 0.5188,0.11807 0.69299,0.36742 0.0966,-0.027 0.20195,-0.0617 0.26561,-0.06 0.25408,0.007 0.25222,0.23532 0.16485,0.53227 0.36621,0.16099 0.70714,0.59419 0.83509,1.31465 0.0912,0.51336 0.23278,1.01793 0.35398,1.52497 0.4112,1.71841 -1.09325,2.27377 -1.74924,1.00511 -0.0158,0.57525 0.0984,1.10582 0.32349,1.63504 0.77495,1.82205 -1.15501,2.58811 -1.8588,0.73742 -0.0807,-0.21227 -0.17646,-0.41933 -0.24236,-0.63665 -0.18371,-0.60575 -0.22364,-1.23561 -0.22273,-1.86449 0.002,-0.22525 0.008,-0.45009 0.0191,-0.67438 -0.48013,0.32345 -0.94627,0.66688 -1.38131,1.04852 -0.0413,0.0143 -0.0698,0.0243 -0.0904,0.032 0.0427,-0.0216 0.0879,-0.0572 -0.0279,-0.0682 -0.1134,-0.0108 0.12302,0.35316 -0.0264,0.22427 -1.49562,-1.2975 -0.54562,2.94897 -1.56166,1.24954 -0.37452,-0.62641 -0.58554,-1.39204 -0.25684,-2.09445 0.0976,-0.20866 0.25742,-0.38195 0.38603,-0.57309 0.95527,-0.96508 2.1253,-1.68222 3.28093,-2.38487 0.004,-0.0175 0.007,-0.0352 0.0103,-0.0527 0.1735,-0.84869 0.64378,-1.24636 1.0852,-1.26245 z m -6.15983,3.93516 h 5.3e-4 0.001 5.3e-4 5.2e-4 l -5.2e-4,10e-4 c 0.0959,-0.005 0.14205,0.0935 0.0253,0.16537 -0.0546,0.0338 -0.0789,0.0748 -0.10438,0.13177 -0.0238,0.0541 -0.0322,0.11223 -0.0382,0.17053 -0.009,0.0586 -0.0137,0.11762 -0.0227,0.17622 -0.003,0.0418 -0.0333,0.0762 -0.0393,0.11679 -0.0103,0.0658 -0.0403,0.0738 -0.0822,0.0646 -0.002,0.004 -0.004,0.008 -0.006,0.0119 -0.0103,0.0188 -0.0198,0.038 -0.03,0.0568 0.025,0.0473 0.0447,0.10523 0.0558,0.17467 0.0154,0.0962 0.0448,0.18923 0.0656,0.28423 0.39329,-0.18542 0.39286,-0.0574 0.45992,0.15193 0.004,0.0326 0.008,0.0651 0.0119,0.0977 0.0909,0.007 0.18745,0.0573 0.27182,0.093 0.0374,0.0159 0.0406,0.0703 0.0579,0.10698 0.0653,0.13835 0.10809,0.28624 0.15089,0.43253 0.0114,0.0458 0.0189,0.0925 0.0295,0.13849 0.15015,0.13214 0.29657,0.30669 0.43149,0.52865 0.74327,1.22258 1.32129,2.53542 1.89653,3.84266 0.60019,1.27146 1.15885,2.56154 1.72599,3.84783 0.42962,0.92232 0.66933,1.90802 0.86042,2.90214 0.15658,1.17921 0.39527,2.34196 0.64182,3.5047 0.30533,1.4039 0.58855,2.81257 0.88263,4.21886 0.20961,0.89742 0.33068,1.81284 0.54467,2.70887 0.24135,0.83303 0.46495,1.66641 0.62322,2.51976 0.14716,0.7592 0.28904,1.51917 0.42219,2.28099 0.0828,0.65559 0.22118,1.30184 0.39791,1.93839 0.13755,0.4846 0.0696,0.24116 0.20361,0.72863 0.52492,1.90915 -1.40398,2.43945 -1.92857,0.53019 -0.13118,-0.47726 -0.0628,-0.23409 -0.2036,-0.73069 -0.18932,-0.69806 -0.34906,-1.40423 -0.43977,-2.12235 -0.13176,-0.75553 -0.27261,-1.50955 -0.41858,-2.2624 -0.15071,-0.82081 -0.37549,-1.61869 -0.60254,-2.42104 -0.21546,-0.91419 -0.34712,-1.84516 -0.55604,-2.76107 -0.29349,-1.40448 -0.57662,-2.81112 -0.8816,-4.21318 -0.24925,-1.17587 -0.49237,-2.35198 -0.64958,-3.54448 -0.16033,-0.84631 -0.35836,-1.68586 -0.72605,-2.47014 -0.56717,-1.28685 -1.12694,-2.57728 -1.72703,-3.84938 -0.49905,-1.13494 -0.99991,-2.27559 -1.62264,-3.34914 -0.0834,0.22178 -0.37127,0.22426 -0.46922,-0.13695 -0.046,-0.16944 -0.0839,-0.34204 -0.1018,-0.51676 -0.0612,-0.0144 -0.1211,-0.0351 -0.17725,-0.0579 -0.0443,-0.0182 -0.007,-0.0964 -0.007,-0.14469 5.3e-4,-0.1604 0.0179,-0.38492 0.0279,-0.539 0.0102,-0.10414 0.0194,-0.20697 0.0305,-0.30953 l -0.015,0.03 c -0.11267,0.22037 -0.3354,0.10666 -0.22273,-0.11369 0.0272,-0.0531 0.0557,-0.10618 0.0801,-0.16071 -0.0991,0.1418 -0.26961,0.0661 -0.19637,-0.13953 0.0287,-0.0805 0.0567,-0.16132 0.0894,-0.24029 -0.003,-0.002 -0.004,-2.7e-4 -0.007,-0.003 -0.0427,-0.0365 -0.01,-0.15029 -0.004,-0.19379 0.004,-0.0112 0.008,-0.0223 0.0114,-0.0336 -0.0477,-0.0142 -0.0745,-0.0784 -0.0269,-0.1633 0.0125,-0.0222 0.0245,-0.0436 0.0372,-0.0656 -0.004,-0.007 -0.011,-0.0139 -0.0155,-0.0222 -0.0133,-0.0222 -0.001,-0.052 0.005,-0.077 8e-4,-0.003 0.002,-0.006 0.003,-0.01 h -5.3e-4 c -5.3e-4,-2.6e-4 -0.001,-7.9e-4 -0.002,-10e-4 -0.0243,0.0241 -0.0356,0.0231 -0.0641,-0.0315 -0.10281,-0.0524 -0.0915,-0.0605 -0.0496,-0.10438 -0.002,-0.008 0.008,-0.0148 0.0191,-0.0207 0.0128,-0.0138 0.0263,-0.027 0.0393,-0.0408 v -5.3e-4 c 0.004,-0.0109 0.007,-0.0221 0.0113,-0.0331 -0.0326,0.0109 -0.0698,0.0271 -0.0987,0.0109 -0.0768,-0.043 -0.0569,-0.0849 -0.0429,-0.13332 0.0247,-0.0557 0.0516,-0.11053 0.0801,-0.16433 0.031,-0.0493 0.0621,-0.0991 0.0987,-0.1447 0.054,-0.0685 0.10887,-0.13619 0.16847,-0.19999 0.0575,-0.0599 0.12001,-0.11408 0.19172,-0.15658 l 0.001,-5.3e-4 c 0.0306,-0.0182 0.0582,-0.0266 0.0822,-0.0274 l 0.001,-5.3e-4 c 0.0936,-0.003 0.12691,0.10828 0.005,0.18087 -0.0563,0.0344 -0.10693,0.0764 -0.15193,0.12454 -0.0486,0.0522 -0.0937,0.10749 -0.13798,0.1633 0.0306,-0.0209 0.0611,-0.0419 0.0925,-0.0615 0.0214,-0.0133 0.0766,-0.0492 0.10542,-0.0522 0.0248,-0.003 0.0494,0.003 0.0744,0.005 0.005,0.0255 0.0145,0.0511 0.0222,0.0765 0.009,-0.007 0.0179,-0.0138 0.0269,-0.0207 0.0701,-0.0407 0.11926,-0.0291 0.15761,0.0341 0.002,-0.003 0.005,-0.007 0.007,-0.0103 0.0477,-0.0704 0.10498,-0.10209 0.15347,-0.1049 0.0176,-10e-4 0.0345,0.002 0.0491,0.008 -0.0118,-0.0868 0.064,-0.13274 0.13436,-0.0713 0.003,-0.0269 0.006,-0.0535 0.0108,-0.0801 0.008,-0.077 0.0211,-0.15413 0.0532,-0.22531 0.0351,-0.0757 0.0777,-0.14594 0.14986,-0.19172 0.0319,-0.0203 0.0623,-0.0289 0.0889,-0.0305 z m 5.92832,8.0114 c 0.48692,0.002 1.03251,0.4948 1.17616,1.47432 0.1577,1.07536 0.45693,2.12928 0.70538,3.18741 0.4526,1.92742 -1.49409,2.38426 -1.94665,0.45682 -0.28316,-1.20606 -0.64421,-2.40823 -0.75861,-3.64423 -0.0912,-0.98579 0.3368,-1.47589 0.82372,-1.47432 z m -137.562142,7.0807 c 0.515287,2.1e-4 1.000088,0.5254 0.912087,1.54254 -0.109905,1.27038 -0.350329,2.53197 -0.640786,3.7729 -0.226573,1.03523 -0.689081,1.96527 -1.29708,2.82308 -0.333563,0.38539 -0.386308,0.81103 -0.425297,1.29811 -0.03664,0.79056 -0.02989,1.58232 -0.02739,2.3735 0.02606,0.66101 -0.03491,1.3192 -0.08837,1.97714 -0.0068,0.09 -0.01386,0.17975 -0.02066,0.26975 -0.149979,1.97431 -2.144366,1.82288 -1.994194,-0.15141 0.0071,-0.0935 0.01408,-0.1871 0.02119,-0.2806 0.04892,-0.60206 0.108087,-1.20372 0.08165,-1.80868 -0.0027,-0.85117 -0.01035,-1.70306 0.03514,-2.55333 0.07852,-0.85246 0.244334,-1.59772 0.787548,-2.28306 0.460782,-0.6459 0.816663,-1.33789 0.980821,-2.12391 0.268936,-1.12974 0.483552,-2.28129 0.591177,-3.43803 0.08885,-0.95494 0.600048,-1.4182 1.084172,-1.418 z m -1.74253,17.04754 c 0.410578,-0.0205 0.765159,0.3128 0.84491,0.8723 0.302059,0.20313 0.545952,0.62099 0.593762,1.264 0.06349,0.8538 0.03012,0.40817 0.09922,1.33687 0.0013,0.0159 0.0024,0.0312 0.0036,0.047 0.123828,0.0846 0.246121,0.16845 0.393774,0.26923 1.22e-4,8e-5 -0.08363,1.5254 -0.09043,1.64331 -0.06495,0.92032 0.04502,1.304 -0.976167,0.91622 0.628012,1.46692 1.237824,2.94195 1.784903,4.44108 0.473009,1.25868 0.935466,2.55806 1.732195,3.65559 0.961438,1.32443 0.07973,2.39354 -0.927592,1.83141 0.0026,0.006 0.0056,0.0124 0.0083,0.0186 0.327827,0.84527 0.755655,1.64588 1.166855,2.45257 0.501412,0.95287 0.884928,1.95962 1.27744,2.96002 0.406194,0.99105 0.838613,1.97101 1.209746,2.97605 0.282396,0.86829 0.540385,1.74374 0.805636,2.61741 0.255524,0.90568 0.600191,1.78205 0.966348,2.64738 0.351663,0.84896 0.784659,1.65751 1.239202,2.45464 0.529035,0.85361 1.06349,1.70418 1.596801,2.5554 0.472228,0.70955 0.980601,1.39464 1.469678,2.09289 0.424228,0.66751 0.929598,1.2747 1.417484,1.89498 0.493125,0.61274 0.934519,1.26429 1.384414,1.90892 0.4298,0.6886 0.851006,1.38122 1.310513,2.05052 0.419632,0.56618 0.819901,1.15099 1.272273,1.69189 0.258789,0.30785 0.50275,0.62732 0.761195,0.93534 1.272612,1.5168 -0.268414,2.80425 -1.535308,1.28261 -0.259302,-0.31144 -0.507399,-0.63171 -0.766879,-0.94309 -0.485577,-0.59137 -0.930505,-1.21631 -1.380276,-1.83503 -0.456424,-0.66517 -0.880472,-1.34971 -1.301729,-2.0376 -0.427992,-0.6136 -0.847449,-1.23404 -1.316717,-1.81746 -0.510178,-0.64953 -1.037947,-1.2861 -1.483114,-1.98386 -0.508564,-0.72632 -1.038371,-1.43745 -1.526006,-2.17816 -0.54787,-0.87474 -1.09852,-1.74779 -1.639691,-2.62672 -0.493342,-0.8657 -0.961546,-1.74507 -1.344105,-2.6665 -0.392925,-0.93038 -0.76187,-1.87197 -1.037661,-2.84479 -0.253939,-0.83658 -0.502799,-1.67509 -0.768946,-2.50786 -0.364617,-0.99261 -0.797216,-1.95673 -1.19476,-2.93625 -0.368782,-0.94015 -0.726011,-1.88758 -1.197343,-2.78278 -0.43253,-0.84904 -0.880988,-1.69252 -1.227315,-2.58123 -0.379203,-0.89818 -0.775067,-1.78993 -1.168402,-2.68201 -0.455353,-1.08247 -0.857062,-2.18776 -1.225251,-3.30264 -0.528916,-1.70435 -0.922264,-3.44579 -0.963764,-5.23948 -7.93e-4,-0.15629 0.0037,-0.31427 0.0041,-0.47129 -0.01969,-0.0453 -0.03922,-0.0906 -0.05891,-0.1359 -0.342794,-0.9583 -1.004564,-2.02837 -1.119311,-3.05563 -0.0191,-0.17046 -0.0048,-0.34267 -0.0072,-0.51418 0.459475,-0.29361 0.833297,-0.86129 1.378212,-0.88109 0.158088,-0.006 0.308562,0.0984 0.448035,0.26355 0.0057,-0.0142 0.0097,-0.0288 0.0155,-0.0429 0.282745,-0.68656 0.698701,-0.99472 1.072804,-1.01337 z m 143.227952,1.8836 c 1.14039,-0.0596 2.19436,1.14075 1.76475,3.32642 -0.048,0.24445 -0.0962,0.48895 -0.14418,0.73328 -0.30695,1.57305 -0.57536,3.15548 -1.03921,4.69326 -0.4493,1.49101 -0.95371,2.96375 -1.49035,4.42557 -0.5421,1.42842 -1.06909,2.86387 -1.68724,4.26175 -0.015,0.0685 -0.0311,0.13718 -0.046,0.20568 -0.71979,3.13338 -1.17651,6.31444 -1.65364,9.49037 -0.24842,2.05288 -0.73522,4.06386 -1.3193,6.04408 -0.40889,1.47235 -0.96903,2.89553 -1.71049,4.23023 -0.60484,1.01426 -1.37638,1.8804 -2.22261,2.67477 2.6577,0.86497 1.67137,2.79969 0.63666,4.72478 -1.14262,1.85908 -2.49388,3.5761 -3.91966,5.22604 -2.34604,2.60362 -4.95642,4.93213 -8.12353,6.50503 -0.11177,0.0579 -0.22549,0.11154 -0.33745,0.16898 0.13009,0.84034 -0.38925,1.89624 -1.82986,2.67219 -1.71081,0.92145 -3.4217,1.84323 -5.13251,2.76469 -4.13654,2.2322 -6.01634,3.23288 -10.06863,5.46995 -3.11933,1.72195 -6.18643,3.57767 -9.44646,5.02811 -2.18262,0.97111 -3.55485,0.002 -3.50883,-1.27795 -1.23781,0.39548 -2.4831,0.76529 -3.74602,1.05936 -3.85682,0.89807 -4.31128,-2.90831 -0.49609,-3.96926 0.85368,-0.23743 1.70219,-0.49525 2.54816,-0.7612 0.25049,-0.57633 0.80097,-1.1594 1.72548,-1.62367 0.19834,-0.0996 0.39803,-0.19645 0.59686,-0.29507 -0.0972,-0.83035 0.41482,-1.85025 1.81798,-2.6076 0.0332,-0.0179 0.0665,-0.0358 0.0997,-0.0537 -0.005,-0.64628 0.32315,-1.43062 1.12086,-2.23449 1.90455,-1.91907 4.103,-3.50894 6.32727,-5.04155 0.0969,-0.11296 0.20174,-0.22604 0.31677,-0.339 6.24399,-6.13148 13.52561,-11.02894 20.76566,-15.89205 0.45319,-1.04882 0.83333,-2.12538 1.0542,-3.25717 0.37925,-1.94334 1.47891,-2.92805 2.43396,-2.9347 0.57597,-0.004 1.09768,0.35053 1.37873,1.06246 0.55442,-1.00503 1.11312,-2.00777 1.64538,-3.02513 0.88728,-1.56938 1.67,-3.19191 2.4784,-4.80178 0.66544,-1.36075 1.3355,-2.71948 2.03553,-4.0628 0.50484,-1.00747 0.94635,-2.04108 1.3317,-3.09955 0.37003,-1.15011 0.9238,-2.22947 1.43299,-3.32331 0.52368,-2.32715 1.13341,-4.67251 1.26401,-7.05125 0.10853,-1.97702 1.14339,-2.96631 2.13372,-2.96675 0.0448,-2e-5 0.0893,0.004 0.13384,0.008 0.21495,-0.94864 0.38771,-1.9068 0.57309,-2.86184 0.0485,-0.24692 0.0972,-0.49309 0.14573,-0.74001 0.33412,-1.69992 1.27362,-2.50903 2.16059,-2.5554 z M 192.8704,154.7524 c 1.32576,0.0177 2.25543,1.58131 1.0697,3.75378 -0.59562,1.0913 -1.20917,2.18505 -1.54926,3.38894 -1.07653,3.81085 -4.90414,2.6621 -3.83129,-1.1498 0.41418,-1.47158 1.14123,-2.81807 1.86759,-4.15324 0.70965,-1.3044 1.6478,-1.85031 2.44326,-1.83968 z" /></clipPath></defs><g
     inkscape:label="Capa 1"
     inkscape:groupmode="layer"
     id="layer1"
     transform="translate(-5.9619112,-5.6590548)"><path
       style="display:inline;fill:#143649;fill-opacity:1;stroke-width:0.482845"
       d="m 91.160474,266.33236 c 0,-0.17829 1.942417,-1.57508 1.942417,-1.57508 l 2.721224,-2.11209 c 0,0 5.264845,-3.81275 9.894655,-7.85528 1.83821,-1.60504 4.0413,-4.10726 5.23386,-5.20676 1.19257,-1.09948 3.79994,-3.6018 5.79414,-5.5607 l 3.62586,-3.5616 -3.13851,2.67979 c -6.78981,5.79749 -10.53106,8.76853 -13.98492,11.10588 -4.176567,2.82643 -18.156886,9.69634 -19.041411,9.35692 C 82.826848,263.07351 69.614239,215.30687 59.075114,172.74301 44.998712,115.89336 35.411469,89.375922 21.333918,68.354314 c -2.763434,-4.126528 -5.149309,-8.000387 -5.301946,-8.60857 -0.340951,-1.358423 0.538737,-3.127111 1.555313,-3.127111 0.962394,0 10.796951,9.823868 14.259442,14.243954 15.765976,20.126152 25.691706,45.633343 37.296571,95.844843 8.947058,38.71184 12.362247,52.12935 17.451807,68.56409 4.049462,13.07616 4.716692,14.9516 5.289628,14.8684 0.674074,-0.0978 8.386717,-10.44682 13.599717,-18.24833 14.24822,-21.32309 21.12949,-34.43007 41.2,-78.47517 4.83734,-10.61559 10.4329,-22.88618 12.4346,-27.268 8.4839,-18.57162 17.36745,-36.010444 22.99797,-45.146093 l 6.31015,-9.742599 c 4.28179,-6.02376 10.50885,-13.183443 16.75642,-19.26596 4.55901,-4.438587 7.89493,-7.294227 17.01844,-14.568247 l 3.17948,-2.534939 h 23.25802 23.25803 l -7.2367,7.121973 c -10.87774,10.705328 -16.16735,17.833466 -23.02121,31.022828 -5.33709,10.270532 -7.84066,16.459178 -14.10724,34.872147 -10.39284,30.537 -13.45547,38.61399 -18.54243,48.90158 -2.6263,5.31129 -5.12494,10.09147 -5.55252,10.6226 -0.4276,0.53113 0.12209,-0.86556 1.22144,-3.10375 1.09939,-2.2382 2.70922,-5.93196 3.57739,-8.20838 2.2951,-6.01788 7.50007,-23.36069 7.47345,-24.90129 -0.0128,-0.70636 -2.67055,6.14059 -4.12423,10.6226 -1.62475,5.00944 -5.63814,14.57714 -5.84915,13.94409 -0.0898,-0.26956 0.6242,-2.64813 1.58681,-5.28572 1.90106,-5.20895 4.10337,-12.40315 3.86872,-12.63779 -0.0805,-0.0805 -0.51684,0.82395 -0.96973,2.00981 -1.76912,4.63241 -8.6983,19.20262 -12.1878,25.62774 -8.79501,16.1939 -16.90114,27.67501 -29.37717,41.60831 -2.12453,2.37268 -4.80754,5.38897 -5.96226,6.70287 -2.75712,3.13719 -2.34005,2.52681 5.34091,-7.81643 18.04358,-24.29757 28.98384,-46.11861 38.82108,-77.43114 1.63964,-5.21909 1.40514,-5.21909 -0.84254,0 -11.61287,26.96493 -15.64753,35.31647 -25.3092,52.38875 -7.23562,12.78544 -11.75122,20.01649 -15.60385,24.98726 -3.85419,4.9728 -3.05025,3.27473 2.57173,-5.43201 1.62902,-2.52287 3.64133,-5.78208 4.47177,-7.24268 1.48967,-2.62007 7.14644,-14.41639 6.69829,-13.96822 -0.12702,0.12701 -1.61369,2.50701 -3.30374,5.2889 -4.62257,7.60893 -13.46168,20.75292 -17.65038,26.24657 -9.45362,12.39884 -31.51246,32.45907 -44.49621,40.46472 -3.04221,1.87581 -8.1483,5.40394 -11.34687,7.84033 -6.134446,4.67269 -10.152044,7.52022 -10.61032,7.52022 -0.151287,0 -0.275126,-0.14581 -0.275126,-0.32411 z M 88.345139,222.18653 C 86.503804,216.41581 83.057318,201.04646 78.123916,176.60577 71.771925,145.13729 70.169893,138.06859 66.489469,125.27099 61.466719,107.80579 57.79604,98.019372 51.697257,85.833353 42.874952,68.205473 35.519304,58.213954 20.414409,43.34038 l -8.826393,-8.691221 h 42.205865 c 31.339092,0 42.151573,0.141414 41.995031,0.549212 -0.115883,0.30207 -1.60643,2.366233 -3.312172,4.587034 -1.705761,2.220799 -6.177401,8.452699 -9.937027,13.848658 l -6.835652,9.810848 3.080771,6.605893 c 6.56903,14.085658 11.936984,31.453616 15.69661,50.786306 2.560922,13.16874 3.454297,20.4413 5.367862,43.69753 0.524426,6.37355 1.297636,13.4424 1.718246,15.70852 l 0.76472,4.12025 -2.63042,7.22662 c -1.44673,3.97466 -3.572261,9.93763 -4.723371,13.25108 l -2.092973,6.02445 -0.602774,-2.88596 c -2.380491,-11.39731 -3.379129,-21.50316 -4.030719,-40.78931 -0.26467,-7.83418 -0.702671,-16.63404 -0.973308,-19.55526 -2.869882,-30.97657 -11.893952,-56.30804 -29.585482,-83.049448 -2.687845,-4.062765 -4.995777,-7.06142 -2.97299,-3.862762 9.04898,14.309327 17.266814,31.397758 21.670622,45.06252 5.490388,17.03634 8.232671,33.1744 9.695917,57.05934 1.428353,23.31517 2.904227,35.20398 5.859041,47.19704 0.730191,2.96377 0.720008,3.08655 -0.580947,7.00126 -0.728293,2.19152 -1.587797,4.61475 -1.910007,5.38497 l -0.585838,1.40037 z m 14.727451,-43.98459 c -1.50515,-12.92567 -1.53435,-28.40495 -0.0717,-38.05101 3.434,-22.64809 15.47406,-50.03144 32.09861,-73.003587 11.13368,-15.384775 29.8196,-31.661489 48.52597,-42.269487 6.62422,-3.756462 12.17592,-6.064284 21.84877,-9.082466 1.64919,-0.514587 0.19868,0.456999 -3.3339,2.233152 -7.84099,3.942371 -17.67058,10.427495 -26.96467,17.790064 -5.73551,4.543548 -20.49626,19.200678 -24.83716,24.662793 -12.67466,15.948424 -22.97853,36.08898 -31.92386,62.400321 -2.80006,8.23596 -7.69906,26.38077 -7.38464,27.31321 0.10146,0.30088 2.16936,-7.82244 2.54811,-8.83199 2.00289,-5.33872 7.90686,-25.8988 12.10502,-36.21831 2.97363,-7.309502 7.5127,-16.957721 8.63202,-18.348152 0.42758,-0.531128 -0.11734,0.989841 -1.21099,3.379931 -6.25187,13.663451 -13.66035,36.125501 -20.22509,61.321391 -3.26062,12.51445 -8.10756,27.86547 -9.11698,28.87487 -0.21512,0.21513 -0.52538,-0.7617 -0.68944,-2.17073 z"
       id="path746"
       sodipodi:nodetypes="sccssscssssssssssssssccsscccssssssscssssssssssssssssssssssssssscsssscsssscsscsssssssssscsssssssssssssscssss" /><path
       style="display:none;fill:#143649;fill-opacity:1;stroke-width:0.906123"
       d="m 80.262837,254.20009 c 0,-0.2428 2.291847,-1.45541 5.093024,-2.69418 7.60425,-3.36298 15.926489,-9.68939 21.758329,-16.54027 13.00936,-15.28255 28.01595,-43.15905 41.5767,-77.23365 18.88312,-47.44824 38.69504,-80.606278 62.94064,-105.33974 l 10.43969,-10.649785 18.12248,-0.0917 c 9.96738,-0.05038 21.28263,-0.150968 25.14499,-0.223636 3.86241,-0.07263 7.02249,-0.0095 7.02246,0.138747 -4e-5,0.148909 -4.38341,5.174041 -9.74088,11.166921 -17.49531,19.570433 -27.68042,34.990341 -47.80761,72.378793 -15.32981,28.4768 -25.9745,45.75872 -38.09125,61.84209 -12.58785,16.70868 -19.04664,24.02216 -31.66614,35.85649 -15.08333,14.14482 -28.60611,22.69213 -43.04548,27.20768 -7.146291,2.23481 -21.746953,5.04281 -21.746953,4.18232 z M 82.180471,224.5564 C 78.999038,212.4722 72.563675,187.70203 67.879686,169.51159 57.455826,129.03033 54.425496,118.75528 47.436292,100.19314 39.602383,79.387542 34.367607,69.454757 24.275357,56.246081 c -1.713513,-2.242633 0.666798,-0.203771 5.289651,4.530641 26.77981,27.426691 36.818317,48.729358 51.09888,108.436398 6.633491,27.73461 13.024731,50.86491 17.443096,63.12756 1.22794,3.40797 2.098686,6.29382 1.935066,6.41297 -3.360996,2.44713 -11.356539,7.77792 -11.663454,7.77626 -0.227397,-9.1e-4 -3.016709,-9.88927 -6.198125,-21.97351 z M 97.128374,212.88834 C 96.856444,210.71016 96.447818,195.47205 96.220556,179.0259 95.77567,146.83648 95.063332,139.75896 90.292314,120.12783 83.101335,90.539086 72.217651,70.003044 53.094096,49.939804 c -4.493575,-4.71437 -8.169587,-8.588068 -8.168895,-8.608173 0.0135,-0.413916 61.615219,-0.119826 61.615219,0.294183 0,0.328082 -2.96479,3.853833 -6.588386,7.835011 -3.623603,3.981162 -8.361741,9.392287 -10.529221,12.024775 l -3.940796,4.786284 3.19048,6.628368 c 11.055477,22.968279 19.987183,60.138538 18.327243,76.270658 -0.36194,3.51746 -0.0869,2.92153 1.27684,-2.76533 11.06723,-46.15498 28.42004,-76.173924 57.4474,-99.379432 4.89148,-3.91044 11.21169,-8.60002 14.04491,-10.421253 6.32279,-4.064422 23.40833,-12.330424 24.63758,-11.919663 0.49333,0.164725 -3.29964,3.07053 -8.42877,6.457065 -30.50917,20.143765 -54.62,51.028473 -69.45236,88.964753 -2.08568,5.33452 -7.18933,23.01625 -11.34143,39.29275 -7.05127,27.64136 -15.12996,54.85111 -16.822716,56.6601 -0.40599,0.43388 -0.96076,-0.99323 -1.23282,-3.17143 z m -7.140207,-21.62977 c -1.877394,-7.7247 -5.012848,-21.64346 -6.967734,-30.9305 C 73.719346,116.14045 67.039117,97.331995 53.303685,76.659303 43.256941,61.538299 27.215856,47.381676 15.718392,43.489384 l -4.313304,-1.460173 14.084444,-0.607312 14.08446,-0.607293 3.807636,2.624462 c 5.533151,3.813737 18.532597,17.685394 23.485472,25.06121 10.625533,15.823652 19.017976,37.323742 23.940098,61.330682 2.300455,11.22014 2.493908,13.93398 2.828302,39.68063 0.504605,38.84928 0.506445,38.8381 -3.647333,21.74698 z"
       id="path865"
       sodipodi:nodetypes="ssssscsssssssssssssscssssssssscssscsscssssssssssssscccsssss" /></g></svg>
